<svg width="134" height="32" viewBox="0 0 134 32" fill="none" xmlns="http://www.w3.org/2000/svg">
<g clip-path="url(#clip0_1303:3252)">
<path fill-rule="evenodd" clip-rule="evenodd" d="M5.79043 0H80.0859C81.6216 0 83.0944 0.606988 84.1803 1.68739C85.2662 2.7678 85.8763 4.23313 85.8763 5.76107V26.243C85.8752 27.7702 85.2647 29.2345 84.1789 30.3141C83.0931 31.3936 81.6209 32 80.0859 32H5.79043C4.25542 32 2.78323 31.3936 1.69742 30.3141C0.611629 29.2345 0.00108327 27.7702 0 26.243V5.76107C0 4.23313 0.610059 2.7678 1.69597 1.68739C2.7819 0.606988 4.25472 0 5.79043 0Z" fill="white"/>
<path fill-rule="evenodd" clip-rule="evenodd" d="M80.0859 0H5.79043C4.25471 0 2.78189 0.606967 1.69598 1.68738C0.610061 2.76778 0 4.23313 0 5.76106L0 26.243C0.00108712 27.7702 0.611628 29.2345 1.69743 30.3141C2.78322 31.3936 4.25542 32 5.79043 32H80.0859C81.6209 32 83.0931 31.3936 84.1789 30.3141C85.2647 29.2345 85.8752 27.7702 85.8763 26.243V5.76106C85.8763 4.23313 85.2662 2.76778 84.1803 1.68738C83.0944 0.606967 81.6216 0 80.0859 0ZM60.8118 7.07076C60.9635 6.8382 61.308 6.71988 61.837 6.71988C62.0104 6.69775 62.1865 6.71132 62.3544 6.75975C62.5223 6.80818 62.6784 6.89043 62.813 7.0014C62.9729 7.18909 63.0509 7.63381 63.0509 8.33967C63.0509 9.04552 62.9811 9.44129 62.8376 9.60449C62.5415 9.81371 62.1763 9.90271 61.8165 9.85337C61.463 9.89996 61.1046 9.81732 60.8077 9.62081C60.6217 9.35267 60.5401 9.02639 60.578 8.70279C60.5862 7.84598 60.6642 7.30333 60.82 7.07076H60.8118ZM20.9472 11.4528C21.6321 10.9387 22.5876 10.6816 23.8712 10.6816C24.3216 10.6812 24.7714 10.7167 25.2162 10.7877C25.6936 10.8613 26.1651 10.969 26.6269 11.11C26.7488 10.9582 26.901 10.8331 27.0739 10.7428C27.2375 10.6594 27.4192 10.6174 27.6029 10.6204C27.7203 10.6128 27.8379 10.632 27.9466 10.6766C28.0554 10.7211 28.1524 10.7898 28.2304 10.8775C28.3908 11.0984 28.4677 11.3686 28.4477 11.6404V12.8645C28.4609 13.106 28.3818 13.3436 28.2263 13.5295C28.1445 13.6095 28.0468 13.6715 27.9394 13.7115C27.832 13.7516 27.7174 13.7688 27.6029 13.7621C27.3282 13.7621 26.8566 13.5254 26.1882 13.0481C25.616 12.6081 24.918 12.3609 24.1951 12.3422C23.7698 12.3173 23.3454 12.4046 22.9649 12.5952C22.838 12.6641 22.7326 12.7663 22.6603 12.8908C22.5879 13.0154 22.5514 13.1573 22.5548 13.301C22.5548 13.7662 23.159 14.079 24.3674 14.2394L25.1875 14.3415C26.7049 14.5618 27.7424 14.8882 28.3124 15.3247C28.5999 15.558 28.8271 15.8565 28.9748 16.1951C29.1225 16.5337 29.1864 16.9027 29.1613 17.2709C29.1827 17.7221 29.0912 18.1714 28.8951 18.5787C28.699 18.9861 28.4044 19.3386 28.0376 19.6047C27.2913 20.1488 26.2319 20.4208 24.8595 20.4208C24.3409 20.4214 23.8229 20.3859 23.3093 20.3147C22.824 20.2478 22.3443 20.1455 21.874 20.0087C21.7106 20.1357 21.5296 20.2387 21.3368 20.3147C21.1548 20.384 20.9617 20.42 20.7668 20.4208C20.6543 20.433 20.5406 20.4182 20.435 20.3777C20.3294 20.3373 20.2351 20.2723 20.1599 20.1882C20.0152 19.9255 19.9537 19.6254 19.9835 19.3273V18.0094C19.9544 17.6824 20.0321 17.3547 20.205 17.0751C20.3028 16.9748 20.4224 16.898 20.5546 16.8506C20.6868 16.8032 20.8281 16.7865 20.9677 16.8017C21.165 16.8029 21.3583 16.8565 21.5277 16.9569C21.6971 17.0574 21.8365 17.201 21.9314 17.3729C22.0442 17.5344 22.1689 17.6871 22.3046 17.8299C22.6365 18.1259 23.0259 18.3509 23.4488 18.4909C23.9297 18.6442 24.4325 18.7186 24.9374 18.7112C25.3422 18.7315 25.7442 18.6337 26.0938 18.4297C26.2206 18.3545 26.3253 18.2474 26.3972 18.1192C26.4692 17.991 26.506 17.8462 26.5039 17.6994C26.5039 17.1608 25.733 16.7895 24.1828 16.5814C23.8425 16.5406 23.5759 16.5039 23.3627 16.4712C22.4239 16.3991 21.5231 16.0716 20.7586 15.5247C20.4798 15.2955 20.2578 15.0055 20.1099 14.6772C19.962 14.3489 19.8921 13.9911 19.9056 13.6315C19.8861 13.2112 19.9709 12.7925 20.1526 12.4125C20.3342 12.0325 20.6072 11.7029 20.9472 11.4528ZM16.6126 16.0469L8.24685 24.3662C8.19339 24.4205 8.12959 24.4636 8.05917 24.493C7.98875 24.5225 7.91314 24.5376 7.83676 24.5376C7.76038 24.5376 7.68477 24.5225 7.61435 24.493C7.54393 24.4636 7.48013 24.4205 7.42667 24.3662L6.52858 23.4727C6.47403 23.4195 6.43068 23.356 6.40109 23.2859C6.3715 23.2159 6.35626 23.1406 6.35626 23.0646C6.35626 22.9886 6.3715 22.9134 6.40109 22.8434C6.43068 22.7733 6.47403 22.7098 6.52858 22.6566L13.5821 15.6389L6.52858 8.62119C6.47403 8.56801 6.43068 8.50453 6.40109 8.43447C6.3715 8.36441 6.35626 8.28918 6.35626 8.21318C6.35626 8.13719 6.3715 8.06196 6.40109 7.9919C6.43068 7.92184 6.47403 7.85836 6.52858 7.80518L7.42667 6.91164C7.48013 6.85736 7.54393 6.81424 7.61435 6.7848C7.68477 6.75536 7.76038 6.74019 7.83676 6.74019C7.91314 6.74019 7.98875 6.75536 8.05917 6.7848C8.12959 6.81424 8.19339 6.85736 8.24685 6.91164L16.6126 15.235C16.6666 15.2881 16.7094 15.3513 16.7386 15.421C16.7678 15.4907 16.7829 15.5654 16.7829 15.641C16.7829 15.7165 16.7678 15.7912 16.7386 15.8609C16.7094 15.9306 16.6666 15.9938 16.6126 16.0469ZM35.9769 25.3495C35.978 25.4248 35.9639 25.4996 35.9355 25.5694C35.907 25.6392 35.8648 25.7026 35.8112 25.7558C35.7577 25.8091 35.694 25.8511 35.6238 25.8795C35.5537 25.9078 35.4785 25.9218 35.4028 25.9207H18.1792C18.1035 25.9218 18.0283 25.9078 17.9581 25.8795C17.888 25.8511 17.8243 25.8091 17.7707 25.7558C17.7172 25.7026 17.6749 25.6392 17.6465 25.5694C17.618 25.4996 17.6039 25.4248 17.605 25.3495V24.2071C17.6039 24.1317 17.618 24.057 17.6465 23.9872C17.6749 23.9174 17.7172 23.854 17.7707 23.8007C17.8243 23.7474 17.888 23.7054 17.9581 23.6771C18.0283 23.6488 18.1035 23.6348 18.1792 23.6359H35.4028C35.4785 23.6348 35.5537 23.6488 35.6238 23.6771C35.694 23.7054 35.7577 23.7474 35.8112 23.8007C35.8648 23.854 35.907 23.9174 35.9355 23.9872C35.9639 24.057 35.978 24.1317 35.9769 24.2071V25.3495ZM40.8652 20.0454C39.8629 20.4834 38.7774 20.7005 37.6829 20.6819C37.0642 20.6931 36.4482 20.5978 35.8621 20.4004C35.3874 20.2399 34.9633 19.9586 34.6318 19.5843C34.4027 19.305 34.2413 18.9769 34.1602 18.6255C34.0439 18.0084 33.9958 17.3804 34.0167 16.7528V13.9906H33.0735C32.7284 14.0239 32.3829 13.9311 32.1016 13.7294C31.9974 13.6155 31.9184 13.4811 31.8697 13.335C31.821 13.1888 31.8036 13.0341 31.8186 12.8808C31.8027 12.7297 31.8193 12.5769 31.8674 12.4327C31.9155 12.2884 31.9939 12.1561 32.0975 12.0444C32.3847 11.8531 32.7295 11.7666 33.0735 11.7996H34.0167V9.46169C33.9818 9.11317 34.0848 8.76485 34.3038 8.49063C34.576 8.27601 34.9221 8.17637 35.2675 8.21318C35.6075 8.17898 35.9476 8.27857 36.2148 8.49063C36.4353 8.76403 36.5385 9.11301 36.5018 9.46169V11.7996H39.5693C39.9169 11.7681 40.2647 11.8575 40.5535 12.0525C40.6579 12.1599 40.7378 12.2883 40.7881 12.4291C40.8383 12.5699 40.8576 12.7197 40.8447 12.8685C40.86 13.0228 40.8415 13.1786 40.7906 13.3251C40.7396 13.4716 40.6573 13.6054 40.5494 13.7172C40.2643 13.9174 39.9168 14.0099 39.5693 13.9783H36.4977V16.5406C36.4457 17.0557 36.5622 17.5737 36.8299 18.0176C36.9813 18.1675 37.1644 18.282 37.3659 18.3526C37.5674 18.4232 37.7821 18.4481 37.9946 18.4256C38.6349 18.4001 39.2638 18.2475 39.844 17.9768C40.2938 17.7553 40.7751 17.6039 41.2711 17.528C41.4059 17.5269 41.5392 17.5552 41.6618 17.6109C41.7844 17.6666 41.8932 17.7483 41.9806 17.8503C42.176 18.0659 42.2816 18.3475 42.2759 18.6378C42.2636 19.1763 41.8002 19.6211 40.8652 20.0454ZM54.7835 20.2208C54.5039 20.4229 54.1596 20.5158 53.8157 20.482H52.2779C52.1193 20.4905 51.9619 20.4506 51.8268 20.3677C51.7773 20.3311 51.7375 20.2829 51.7111 20.2274C51.6846 20.1719 51.6722 20.1108 51.6751 20.0495V19.3518C51.3475 19.7952 50.9112 20.1477 50.4079 20.3759C49.8613 20.6191 49.2678 20.7402 48.6691 20.7308C48.0596 20.7439 47.4538 20.6323 46.8895 20.4028C46.3251 20.1733 45.8142 19.8308 45.3884 19.3967C44.9512 18.959 44.608 18.4374 44.3796 17.8637C44.1511 17.29 44.0423 16.676 44.0597 16.0592C44.0399 15.4241 44.1487 14.7915 44.3798 14.1992C44.6109 13.6069 44.9595 13.0669 45.4048 12.6115C45.8446 12.1616 46.3735 11.8074 46.958 11.5714C47.5424 11.3355 48.1698 11.2228 48.8003 11.2406C49.274 11.2396 49.7442 11.3196 50.1905 11.4772C50.6334 11.6327 51.0487 11.8572 51.4208 12.1423V9.61265H50.0839C49.7344 9.64556 49.3848 9.55134 49.0997 9.34744C48.9942 9.23497 48.9137 9.10161 48.8635 8.95607C48.8134 8.81054 48.7946 8.6561 48.8085 8.50287C48.7932 8.3483 48.8112 8.19224 48.8614 8.04516C48.9116 7.89809 48.9929 7.7634 49.0997 7.65013C49.3868 7.45112 49.7356 7.36002 50.0839 7.39309H53.2088C53.2921 7.38278 53.3767 7.38978 53.4572 7.41366C53.5376 7.43754 53.6122 7.47777 53.6763 7.53181C53.7758 7.68549 53.8206 7.86797 53.8034 8.04998V18.291H53.9715C54.119 18.2707 54.2693 18.2846 54.4104 18.3318C54.5516 18.3789 54.6798 18.458 54.7851 18.5627C54.8904 18.6675 54.9699 18.7951 55.0173 18.9355C55.0646 19.076 55.0787 19.2254 55.0583 19.3722C55.075 19.5249 55.0591 19.6794 55.0118 19.8256C54.9644 19.9719 54.8867 20.1065 54.7835 20.2208ZM66.4341 20.2208C66.149 20.421 65.8015 20.5136 65.454 20.482H58.6424C58.2949 20.5143 57.9471 20.4217 57.6623 20.2208C57.5549 20.1087 57.4729 19.9749 57.4219 19.8284C57.371 19.682 57.3523 19.5264 57.3671 19.3722C57.3546 19.2241 57.3733 19.075 57.4221 18.9345C57.4708 18.794 57.5484 18.6651 57.65 18.5562C57.9417 18.361 58.2926 18.273 58.6424 18.3073H60.8036V13.4316H59.6676C59.3259 13.4633 58.9839 13.3721 58.7039 13.1746C58.5957 13.0638 58.5131 12.9308 58.4621 12.7849C58.4111 12.6389 58.3928 12.4837 58.4087 12.33C58.3935 12.1779 58.4108 12.0244 58.4596 11.8796C58.5084 11.7347 58.5875 11.6017 58.6916 11.4895C58.9781 11.2965 59.3232 11.2085 59.6676 11.2406H62.6941C62.8461 11.2328 62.9967 11.2728 63.1247 11.3548C63.1742 11.3915 63.2139 11.4397 63.2404 11.4952C63.2668 11.5506 63.2792 11.6117 63.2764 11.6731V18.291H65.4376C65.7846 18.259 66.1322 18.3469 66.4218 18.5398C66.5257 18.6475 66.6054 18.776 66.6556 18.9167C66.7058 19.0574 66.7253 19.2071 66.7129 19.3559C66.7323 19.5115 66.7174 19.6695 66.6692 19.8189C66.6211 19.9683 66.5408 20.1054 66.4341 20.2208ZM78.1954 19.3722C77.0669 20.2527 75.6742 20.7312 74.2401 20.7312C72.806 20.7312 71.4133 20.2527 70.2848 19.3722C69.7891 18.9353 69.3962 18.3951 69.134 17.7901C68.8717 17.1851 68.7466 16.53 68.7675 15.8715C68.7495 15.2143 68.8767 14.5613 69.1404 13.9585C69.404 13.3557 69.7974 12.8178 70.293 12.383C71.419 11.5005 72.8107 11.0206 74.2442 11.0206C75.6776 11.0206 77.0694 11.5005 78.1954 12.383C78.6894 12.8186 79.0814 13.3568 79.3436 13.9595C79.6057 14.5623 79.7317 15.215 79.7127 15.8715C79.7336 16.53 79.6084 17.1851 79.3462 17.7901C79.084 18.3951 78.691 18.9353 78.1954 19.3722ZM74.2257 13.1297C73.8674 13.1181 73.5105 13.1802 73.1775 13.3122C72.8444 13.4442 72.5423 13.6432 72.2901 13.8967C72.0379 14.1548 71.8406 14.461 71.7103 14.7969C71.5799 15.1327 71.5191 15.4913 71.5315 15.8511C71.5198 16.2157 71.5808 16.579 71.711 16.9201C71.8412 17.2611 72.038 17.5731 72.2901 17.8381C72.8086 18.3408 73.5039 18.6221 74.2278 18.6221C74.9517 18.6221 75.647 18.3408 76.1654 17.8381C76.4188 17.5739 76.6168 17.2621 76.7477 16.9209C76.8787 16.5798 76.94 16.2161 76.9282 15.8511C76.9406 15.4913 76.8798 15.1327 76.7494 14.7969C76.619 14.461 76.4218 14.1548 76.1695 13.8967C75.9161 13.6426 75.6126 13.4432 75.2782 13.3112C74.9437 13.1792 74.5854 13.1174 74.2257 13.1297Z" fill="#111111"/>
<path fill-rule="evenodd" clip-rule="evenodd" d="M49.0997 13.3705C48.7885 13.3629 48.4795 13.425 48.1956 13.5521C47.9117 13.6792 47.6601 13.8681 47.4594 14.1049C47.0159 14.6235 46.7846 15.2891 46.8114 15.9695C46.7812 16.6596 47.0108 17.3361 47.4553 17.8667C47.6604 18.0985 47.9128 18.2841 48.1956 18.4112C48.4784 18.5384 48.7852 18.6042 49.0956 18.6042C49.406 18.6042 49.7128 18.5384 49.9956 18.4112C50.2785 18.2841 50.5308 18.0985 50.736 17.8667C51.1799 17.3372 51.4108 16.6627 51.3839 15.9736C51.4083 15.2953 51.1756 14.6327 50.7319 14.1171C50.5323 13.8803 50.2823 13.6905 50.0001 13.5614C49.7179 13.4323 49.4103 13.3671 49.0997 13.3705Z" fill="#111111"/>
<path d="M91.7241 16.8629C92.2804 16.836 92.8261 17.0213 93.2496 17.3811C93.4323 17.5572 93.5776 17.7681 93.6767 18.0011C93.7759 18.2341 93.827 18.4846 93.827 18.7377C93.827 18.9908 93.7759 19.2413 93.6767 19.4743C93.5776 19.7074 93.4323 19.9182 93.2496 20.0943C92.8279 20.4582 92.2817 20.6466 91.7241 20.6207C91.1732 20.6439 90.6343 20.4554 90.2191 20.0943C90.0339 19.9201 89.8865 19.7101 89.7857 19.4772C89.6849 19.2443 89.6329 18.9933 89.6329 18.7398C89.6329 18.4862 89.6849 18.2353 89.7857 18.0024C89.8865 17.7694 90.0339 17.5594 90.2191 17.3852C90.6347 17.0252 91.1736 16.8382 91.7241 16.8629Z" fill="#111111"/>
<path d="M102.46 12.2402C102.689 11.8375 103.035 11.5132 103.453 11.31C103.933 11.0967 104.456 10.9962 104.982 11.0162C105.435 10.9856 105.889 11.052 106.313 11.2111C106.738 11.3702 107.123 11.6182 107.443 11.9383C108.017 12.5503 108.304 13.4303 108.304 14.5781V18.3073H108.472C108.62 18.2963 108.769 18.3147 108.91 18.3617C109.051 18.4086 109.181 18.4831 109.292 18.5807C109.475 18.8187 109.573 19.1097 109.573 19.4089C109.573 19.7082 109.475 19.9991 109.292 20.2372C109.013 20.4392 108.668 20.5321 108.324 20.4983H105.802C105.461 20.532 105.119 20.439 104.843 20.2372C104.663 20.086 104.537 19.8817 104.483 19.6542C104.428 19.4266 104.448 19.1877 104.54 18.9722C104.631 18.7568 104.79 18.576 104.992 18.4564C105.194 18.3368 105.429 18.2846 105.663 18.3073H105.802V15.3819C105.851 14.7732 105.743 14.1621 105.487 13.6071C105.366 13.4366 105.203 13.3008 105.013 13.2134C104.822 13.126 104.613 13.0901 104.404 13.1093C104.141 13.1089 103.881 13.1669 103.643 13.2792C103.406 13.3914 103.196 13.555 103.03 13.758C102.637 14.2093 102.431 14.7931 102.456 15.3901V18.2992H102.616C102.915 18.2786 103.21 18.377 103.436 18.5725C103.62 18.81 103.719 19.1012 103.719 19.4008C103.719 19.7004 103.62 19.9915 103.436 20.229C103.157 20.4294 102.815 20.5222 102.473 20.4902H99.9792C99.6334 20.5241 99.2868 20.4329 99.0032 20.2331C98.899 20.1185 98.8203 19.9833 98.7722 19.8364C98.7242 19.6894 98.7079 19.534 98.7243 19.3804C98.7123 19.2329 98.7304 19.0846 98.7776 18.9443C98.8249 18.8041 98.9002 18.6748 98.9991 18.5644C99.1105 18.4666 99.2405 18.392 99.3814 18.345C99.5222 18.2981 99.6711 18.2797 99.8193 18.291H99.9915V9.61268H99.8193C99.6693 9.62916 99.5175 9.61168 99.3753 9.56155C99.2331 9.51142 99.1041 9.42993 98.998 9.32319C98.8919 9.21645 98.8114 9.08722 98.7626 8.94517C98.7138 8.80312 98.6979 8.65192 98.7161 8.5029C98.7008 8.34832 98.7188 8.19227 98.769 8.04519C98.8192 7.89812 98.9005 7.76343 99.0073 7.65016C99.2944 7.45115 99.6432 7.36005 99.9915 7.39312H101.882C101.966 7.38345 102.051 7.39076 102.132 7.41459C102.213 7.43843 102.288 7.47831 102.354 7.53184C102.457 7.68378 102.504 7.8673 102.485 8.05001L102.46 12.2402Z" fill="#111111"/>
<path d="M118.019 13.4315H117.859C117.71 13.4426 117.561 13.4234 117.42 13.375C117.279 13.3266 117.149 13.25 117.039 13.1499C116.94 13.0392 116.865 12.91 116.817 12.7699C116.769 12.6298 116.75 12.4816 116.76 12.3339C116.745 12.1819 116.762 12.0284 116.811 11.8835C116.86 11.7386 116.939 11.6057 117.043 11.4934C117.329 11.3004 117.674 11.2125 118.019 11.2446H119.918C120.063 11.24 120.206 11.2798 120.328 11.3588C120.375 11.3972 120.414 11.4457 120.44 11.5008C120.466 11.5559 120.48 11.6161 120.479 11.677V18.2908H120.639C120.788 18.2816 120.937 18.3017 121.078 18.35C121.219 18.3983 121.348 18.4739 121.46 18.5724C121.562 18.6807 121.641 18.8094 121.69 18.95C121.74 19.0905 121.759 19.2399 121.747 19.3884C121.762 19.543 121.744 19.6991 121.694 19.8462C121.644 19.9933 121.562 20.128 121.455 20.2411C121.168 20.4395 120.819 20.5305 120.471 20.4982H118.802C118.646 20.5074 118.492 20.4643 118.363 20.3758C118.313 20.3365 118.273 20.2862 118.246 20.2288C118.219 20.1715 118.206 20.1086 118.208 20.0453V19.2701C117.915 19.7262 117.508 20.0988 117.027 20.3513C116.517 20.6014 115.954 20.7246 115.386 20.7103C114.308 20.7103 113.504 20.388 112.983 19.7393C112.462 19.0905 112.2 18.1072 112.2 16.769V13.4315H112.028C111.879 13.4414 111.73 13.4217 111.589 13.3733C111.448 13.3249 111.318 13.249 111.207 13.1499C111.107 13.04 111.031 12.911 110.982 12.7708C110.933 12.6305 110.914 12.4819 110.924 12.3339C110.91 12.1816 110.928 12.0279 110.977 11.883C111.027 11.7381 111.107 11.6053 111.211 11.4934C111.504 11.3002 111.854 11.2123 112.204 11.2446H114.094C114.24 11.2359 114.384 11.2761 114.504 11.3588C114.55 11.3984 114.586 11.4474 114.61 11.5024C114.634 11.5574 114.646 11.6171 114.644 11.677V16.3202C114.594 16.9175 114.713 17.517 114.988 18.0501C115.117 18.2228 115.287 18.3597 115.484 18.4476C115.681 18.5355 115.897 18.5715 116.112 18.552C116.371 18.5598 116.628 18.5099 116.865 18.4062C117.102 18.3024 117.313 18.1473 117.482 17.9522C117.859 17.4939 118.051 16.9118 118.019 16.3202V13.4315Z" fill="#111111"/>
<path d="M126.048 16.4508C126.173 17.107 126.531 17.6965 127.057 18.1114C127.646 18.5049 128.346 18.6981 129.054 18.6622C129.911 18.6551 130.754 18.4468 131.515 18.0543C131.975 17.7881 132.469 17.585 132.983 17.4504C133.099 17.4475 133.214 17.471 133.319 17.5191C133.424 17.5672 133.517 17.6386 133.59 17.7279C133.754 17.9243 133.839 18.1745 133.828 18.4297C133.828 19.058 133.362 19.602 132.429 20.0617C131.344 20.5471 130.162 20.7802 128.972 20.7431C127.529 20.8057 126.116 20.32 125.019 19.3844C124.523 18.9479 124.129 18.4079 123.866 17.8028C123.603 17.1978 123.477 16.5426 123.498 15.8837C123.479 15.2269 123.606 14.574 123.869 13.9712C124.132 13.3684 124.524 12.8304 125.019 12.3952C126.112 11.4508 127.526 10.9575 128.972 11.0162C130.292 10.9695 131.58 11.4264 132.573 12.2932C133.027 12.6777 133.39 13.1572 133.637 13.6974C133.884 14.2376 134.008 14.8253 134 15.4186C134.018 15.5674 134.002 15.7184 133.952 15.86C133.903 16.0015 133.821 16.1297 133.713 16.2346C133.349 16.4196 132.939 16.4961 132.532 16.4549L126.048 16.4508ZM131.466 14.8922C131.421 14.6085 131.32 14.3364 131.17 14.0914C131.019 13.8464 130.821 13.6333 130.588 13.4642C130.044 13.1023 129.397 12.9236 128.743 12.9542C128.118 12.9224 127.499 13.0928 126.979 13.4397C126.506 13.8047 126.177 14.3229 126.048 14.9045L131.466 14.8922Z" fill="#111111"/>
</g>
<defs>
<clipPath id="clip0_1303:3252">
<rect width="134" height="32" fill="white"/>
</clipPath>
</defs>
</svg>


